<!DOCTYPE svg PUBLIC "-//W3C//DTD SVG 1.1//EN" "http://www.w3.org/Graphics/SVG/1.1/DTD/svg11.dtd">
<!-- Uploaded to: SVG Repo, www.svgrepo.com, Transformed by: SVG Repo Mixer Tools -->
<svg height="800px" width="800px" version="1.1" id="Layer_1" xmlns="http://www.w3.org/2000/svg" xmlns:xlink="http://www.w3.org/1999/xlink" viewBox="-5.12 -5.12 522.24 522.24" xml:space="preserve" fill="#ce721c" stroke="#ce721c" stroke-width="7.168000000000001" transform="rotate(0)">
<g id="SVGRepo_bgCarrier" stroke-width="0"/>
<g id="SVGRepo_iconCarrier"> <g transform="translate(1 1)"> <g> <path style="fill:#E2E3E5;" d="M41.667,195.267c-5.12,0-8.533-3.413-8.533-8.533c0-61.44,49.493-110.933,110.933-110.933 c5.12,0,8.533,3.413,8.533,8.533s-3.413,8.533-8.533,8.533c-52.053,0-93.867,41.813-93.867,93.867 C50.2,191.853,46.787,195.267,41.667,195.267z"/> <path style="fill:#E2E3E5;" d="M135.533,144.067c-2.56,0-4.267-0.853-5.973-2.56c-3.413-3.413-3.413-8.533,0-11.947l51.2-51.2 c3.413-3.413,8.533-3.413,11.947,0s3.413,8.533,0,11.947l-51.2,51.2C139.8,143.213,138.093,144.067,135.533,144.067z"/> <path style="fill:#E2E3E5;" d="M186.733,92.867c-2.56,0-4.267-0.853-5.973-2.56l-51.2-51.2c-3.413-3.413-3.413-8.533,0-11.947 s8.533-3.413,11.947,0l51.2,51.2c3.413,3.413,3.413,8.533,0,11.947C191,92.013,189.293,92.867,186.733,92.867z"/> <path style="fill:#E2E3E5;" d="M186.733,92.867h-42.667c-5.12,0-8.533-3.413-8.533-8.533s3.413-8.533,8.533-8.533h42.667 c5.12,0,8.533,3.413,8.533,8.533S191.853,92.867,186.733,92.867z"/> </g> <path style="fill:#CCCCCC;" d="M186.733,473.453v-215.04c0-16.213,12.8-29.013,29.013-29.013h257.707 c16.213,0,29.013,12.8,29.013,29.013v215.04c0,16.213-12.8,29.013-29.013,29.013H215.747 C199.533,502.467,186.733,489.667,186.733,473.453"/> <path style="fill:#FFFFFF;" d="M7.533,473.453v-215.04c0-16.213,12.8-29.013,29.013-29.013h257.707 c16.213,0,29.013,12.8,29.013,29.013v215.04c0,16.213-12.8,29.013-29.013,29.013H36.547 C20.333,502.467,7.533,489.667,7.533,473.453"/> <path style="fill:#E2E3E5;" d="M33.133,473.453v-215.04c0-16.213,12.8-29.013,29.013-29.013h385.707 c16.213,0,29.013,12.8,29.013,29.013v215.04c0,16.213-12.8,29.013-29.013,29.013H62.147 C45.933,502.467,33.133,489.667,33.133,473.453"/> <path style="fill:#F0F0F0;" d="M58.733,391.533c-14.507,0-25.6-11.093-25.6-25.6c0-14.507,11.093-25.6,25.6-25.6 s25.6,11.093,25.6,25.6C84.333,380.44,73.24,391.533,58.733,391.533"/> <g> <path style="fill:#B6B6B6;" d="M473.453,511H36.547C16.067,511-1,493.933-1,473.453v-215.04c0-20.48,17.067-37.547,37.547-37.547 h436.907c20.48,0,37.547,17.067,37.547,37.547v215.04C511,493.933,493.933,511,473.453,511z M36.547,237.933 c-11.093,0-20.48,9.387-20.48,20.48v215.04c0,11.093,9.387,20.48,20.48,20.48h436.907c11.093,0,20.48-9.387,20.48-20.48v-215.04 c0-11.093-9.387-20.48-20.48-20.48H36.547z"/> <path style="fill:#B6B6B6;" d="M58.733,400.067c-18.773,0-34.133-15.36-34.133-34.133c0-18.773,15.36-34.133,34.133-34.133 s34.133,15.36,34.133,34.133C92.867,384.707,77.507,400.067,58.733,400.067z M58.733,348.867c-9.387,0-17.067,7.68-17.067,17.067 S49.347,383,58.733,383S75.8,375.32,75.8,365.933S68.12,348.867,58.733,348.867z"/> <path style="fill:#B6B6B6;" d="M109.933,511c-5.12,0-8.533-3.413-8.533-8.533V229.4c0-5.12,3.413-8.533,8.533-8.533 s8.533,3.413,8.533,8.533v273.067C118.467,507.587,115.053,511,109.933,511z"/> <path style="fill:#B6B6B6;" d="M451.267,511c-5.12,0-8.533-3.413-8.533-8.533V229.4c0-5.12,3.413-8.533,8.533-8.533 s8.533,3.413,8.533,8.533v273.067C459.8,507.587,456.387,511,451.267,511z"/> <path style="fill:#B6B6B6;" d="M476.867,374.467c-5.12,0-8.533-3.413-8.533-8.533V331.8c0-5.12,3.413-8.533,8.533-8.533 c5.12,0,8.533,3.413,8.533,8.533v34.133C485.4,371.053,481.987,374.467,476.867,374.467z"/> <path style="fill:#B6B6B6;" d="M476.867,408.6c-5.12,0-8.533-3.413-8.533-8.533v-8.533c0-5.12,3.413-8.533,8.533-8.533 c5.12,0,8.533,3.413,8.533,8.533v8.533C485.4,405.187,481.987,408.6,476.867,408.6z"/> <path style="fill:#B6B6B6;" d="M485.4,67.267H263.533c-5.12,0-8.533-3.413-8.533-8.533s3.413-8.533,8.533-8.533H485.4 c5.12,0,8.533,3.413,8.533,8.533S490.52,67.267,485.4,67.267z"/> <path style="fill:#B6B6B6;" d="M502.467,266.947c-5.12,0-8.533-3.413-8.533-8.533c0-11.093-9.387-20.48-20.48-20.48h-235.52 c-5.12,0-8.533-3.413-8.533-8.533V36.547C229.4,16.067,246.467-1,266.947-1h206.507C493.933-1,511,16.067,511,36.547v221.867 C511,263.533,507.587,266.947,502.467,266.947z M246.467,220.867h226.987c7.68,0,14.507,2.56,20.48,5.973V36.547 c0-11.093-9.387-20.48-20.48-20.48H266.947c-11.093,0-20.48,9.387-20.48,20.48V220.867z"/> <path style="fill:#B6B6B6;" d="M33.133,186.733c-5.12,0-8.533-3.413-8.533-8.533c0-61.44,49.493-110.933,110.933-110.933 c5.12,0,8.533,3.413,8.533,8.533c0,5.12-3.413,8.533-8.533,8.533c-52.053,0-93.867,41.813-93.867,93.867 C41.667,183.32,38.253,186.733,33.133,186.733z"/> <path style="fill:#B6B6B6;" d="M127,135.533c-2.56,0-4.267-0.853-5.973-2.56c-3.413-3.413-3.413-8.533,0-11.947l51.2-51.2 c3.413-3.413,8.533-3.413,11.947,0c3.413,3.413,3.413,8.533,0,11.947l-51.2,51.2C131.267,134.68,129.56,135.533,127,135.533z"/> <path style="fill:#B6B6B6;" d="M178.2,84.333c-2.56,0-4.267-0.853-5.973-2.56l-51.2-51.2c-3.413-3.413-3.413-8.533,0-11.947 s8.533-3.413,11.947,0l51.2,51.2c3.413,3.413,3.413,8.533,0,11.947C182.467,83.48,180.76,84.333,178.2,84.333z"/> <path style="fill:#B6B6B6;" d="M178.2,84.333h-42.667c-5.12,0-8.533-3.413-8.533-8.533s3.413-8.533,8.533-8.533H178.2 c5.12,0,8.533,3.413,8.533,8.533C186.733,80.92,183.32,84.333,178.2,84.333z"/> </g> </g> </g>
</svg>